<svg width="1024" height="1024" viewBox="0 0 1024 1024" xmlns="http://www.w3.org/2000/svg" role="img" aria-labelledby="title desc">
  <title id="title">Yara AI Labs Neon Logo</title>
  <desc id="desc">Glow logo with Yara symbol and gradient text.</desc>
  <defs>
    <linearGradient id="grad" x1="0%" y1="0%" x2="100%" y2="100%">
      <stop offset="0%" stop-color="#A855F7" />
      <stop offset="50%" stop-color="#EC4899" />
      <stop offset="100%" stop-color="#FB7185" />
    </linearGradient>
    <filter id="glow" filterUnits="userSpaceOnUse">
      <feGaussianBlur stdDeviation="12" result="blur" />
      <feMerge>
        <feMergeNode in="blur" />
        <feMergeNode in="SourceGraphic" />
      </feMerge>
    </filter>
  </defs>
  <rect width="1024" height="1024" fill="#05050A" />
  <g filter="url(#glow)" fill="url(#grad)" stroke="url(#grad)" stroke-width="4">
    <path d="M512 312c-40.8 0-77 19.4-99.2 49.4-5.2 6.8-4.1 16.6 2.3 22.4 6.4 5.8 16.2 5.6 22.3-.3 17.6-17.3 42-28.1 69-28.1s51.4 10.8 69 28.1c6 5.9 15.9 6.1 22.3.3 6.4-5.8 7.5-15.6 2.3-22.4C589 331.4 552.8 312 512 312z" />
    <path d="M512 602c8.8 0 16-7.2 16-16V420c0-8.8-7.2-16-16-16s-16 7.2-16 16v166c0 8.8 7.2 16 16 16z" />
    <path d="M512 260c-7.1 0-13.7 3.8-17.3 9.9-3.6 6.1-3.7 13.7-.3 19.9l17.3 30.7 17.3-30.7c3.4-6.2 3.3-13.8-.3-19.9-3.6-6.1-10.2-9.9-17.3-9.9z" />
  </g>
  <g filter="url(#glow)" fill="url(#grad)">
    <text x="230" y="700" font-family="'Space Grotesk', 'Inter', 'Helvetica', 'Arial', sans-serif" font-size="168" font-weight="600" letter-spacing="0.25em">
      YARA
    </text>
    <text x="318" y="820" font-family="'Space Grotesk', 'Inter', 'Helvetica', 'Arial', sans-serif" font-size="80" letter-spacing="0.45em">
      AI LABS
    </text>
  </g>
</svg>
